# xmcd
#
# Track frame offsets:
#	150
#	21894
#	37930
#	58966
#	75520
#	91917
#	110220
#	132943
#	156291
#	175104
#	193378
#	226573
#	259395
#
# Disc length: 3768 seconds
#
# Revision: 0
# Processed by: cddbd v1.5.2PL0 Copyright (c) Steve Scherf et al.
# Submitted via: EasyCDDAExtractor 15.2.1.1
#
DISCID=ab0eb60d
DTITLE=伍佰 and China Blue - 忘情1015 CD1 妄
DYEAR=2007
DGENRE=
TTITLE0=烧火
TTITLE1=活下去
TTITLE2=双面人
TTITLE3=厉害
TTITLE4=台湾制造
TTITLE5=一石二鸟
TTITLE6=纯真年代
TTITLE7=海市蜃楼
TTITLE8=妳是我的花朵
TTITLE9=厉害(Adam Freeland's Flying Daggers Edit)
TTITLE10=海底飞凌机(Barry Gilbey Remix)
TTITLE11=海上的岛(Way Out West Remix)
TTITLE12=风台心情(Virusindigo Remix)
EXTD=
EXTT0=
EXTT1=
EXTT2=
EXTT3=
EXTT4=
EXTT5=
EXTT6=
EXTT7=
EXTT8=
EXTT9=
EXTT10=
EXTT11=
EXTT12=
PLAYORDER=
